<svg xmlns="http://www.w3.org/2000/svg" version="1.1" xmlns:xlink="http://www.w3.org/1999/xlink" xmlns:svgjs="http://svgjs.dev/svgjs" viewBox="0 0 8.07954526644663 1.6998106864944615"><g transform="matrix(1,0,0,1,1.7959880278097593,0.31590534324723063)"><rect width="8.07954526644663" height="1.6998106864944615" x="-1.795988027809759" y="-0.31590534324723063" fill="#ffffff"></rect><g><path d=" M 0.28200000000000003 0.018000000000000016 L 0.18 0.018000000000000016 L 0.18 1.068 L 0.246 1.068 L 0.246 0.21150000000000002 L 0.252 0.21150000000000002 L 0.7155 1.086 L 0.7425 1.086 L 1.2165 0.21750000000000003 L 1.2225 0.21750000000000003 L 1.2225 1.068 L 1.359 1.068 L 1.359 0.018000000000000016 L 1.2555 0.018000000000000016 L 0.7695 0.9195000000000001 L 0.7635000000000001 0.9195000000000001 L 0.28200000000000003 0.018000000000000016 Z M 2.317409912109375 0.7590000000000001 L 2.4614099121093753 1.068 L 2.606909912109375 1.068 L 2.117909912109375 0.018000000000000016 L 2.042909912109375 0.018000000000000016 L 1.598909912109375 1.068 L 1.6679099121093752 1.068 L 1.7999099121093751 0.7590000000000001 L 2.317409912109375 0.7590000000000001 Z M 2.285909912109375 0.6915 L 1.828409912109375 0.6915 L 2.044409912109375 0.18600000000000005 L 2.0504099121093753 0.18600000000000005 L 2.285909912109375 0.6915 Z M 2.9834018554687503 0.546 L 3.6119018554687505 0.546 L 3.6119018554687505 1.068 L 3.7484018554687504 1.068 L 3.7484018554687504 0.018000000000000016 L 3.6119018554687505 0.018000000000000016 L 3.6119018554687505 0.4770000000000001 L 2.9834018554687503 0.4770000000000001 L 2.9834018554687503 0.018000000000000016 L 2.8469018554687504 0.018000000000000016 L 2.8469018554687504 1.068 L 2.9834018554687503 1.068 L 2.9834018554687503 0.546 Z M 3.9988154296875003 0.8025 Q 4.0018154296875 0.867 4.032565429687501 0.9195000000000001 Q 4.0633154296875 0.9720000000000001 4.1165654296875 1.00875 Q 4.1698154296875005 1.0455 4.241815429687501 1.06575 Q 4.313815429687501 1.086 4.3993154296875 1.086 Q 4.4863154296875 1.086 4.5560654296875 1.0650000000000002 Q 4.6258154296875 1.044 4.6753154296875 1.0050000000000001 Q 4.7248154296875 0.9660000000000001 4.7518154296875 0.9105000000000001 Q 4.7788154296875005 0.8550000000000001 4.7788154296875005 0.7875000000000001 Q 4.7788154296875005 0.6945000000000001 4.7323154296875005 0.6352500000000001 Q 4.6858154296875005 0.5760000000000001 4.6160654296875006 0.53625 Q 4.546315429687501 0.49650000000000005 4.4645654296875 0.46950000000000003 Q 4.382815429687501 0.4425 4.313065429687501 0.4125000000000001 Q 4.243315429687501 0.38250000000000006 4.196815429687501 0.3435 Q 4.150315429687501 0.3045 4.150315429687501 0.24 Q 4.150315429687501 0.20400000000000007 4.1660654296875 0.1725 Q 4.1818154296875 0.14100000000000001 4.2125654296875 0.11775000000000002 Q 4.243315429687501 0.09450000000000003 4.288315429687501 0.08025000000000004 Q 4.3333154296875005 0.06600000000000006 4.3918154296875 0.06600000000000006 Q 4.4893154296875 0.06600000000000006 4.5575654296875 0.10725000000000007 Q 4.6258154296875 0.14850000000000008 4.6378154296875005 0.237 L 4.7398154296875 0.237 Q 4.7308154296875005 0.1815 4.6993154296875 0.1372500000000001 Q 4.667815429687501 0.09300000000000008 4.619815429687501 0.06225000000000014 Q 4.571815429687501 0.031500000000000083 4.5110654296875 0.01574999999999993 Q 4.4503154296875005 0 4.384315429687501 0 Q 4.315315429687501 0 4.2530654296875 0.018000000000000016 Q 4.1908154296875 0.03600000000000003 4.1435654296875 0.07050000000000001 Q 4.0963154296875 0.1050000000000001 4.0685654296875 0.15750000000000008 Q 4.0408154296875 0.21000000000000008 4.0408154296875 0.2775000000000001 Q 4.0408154296875 0.366 4.0858154296875 0.42000000000000004 Q 4.1308154296875 0.4740000000000001 4.199065429687501 0.51 Q 4.267315429687501 0.546 4.3468154296875 0.5715000000000001 Q 4.4263154296875005 0.597 4.4945654296875 0.6292500000000001 Q 4.5628154296875 0.6615 4.6078154296875 0.7080000000000001 Q 4.6528154296875 0.7545000000000001 4.6528154296875 0.8325 Q 4.6528154296875 0.93 4.5815654296875 0.9750000000000001 Q 4.5103154296875 1.02 4.3918154296875 1.02 Q 4.2973154296875 1.02 4.2403154296875005 0.9952500000000001 Q 4.1833154296875 0.9705 4.153315429687501 0.936 Q 4.1233154296875005 0.9015000000000001 4.1128154296875 0.86475 Q 4.102315429687501 0.8280000000000001 4.100815429687501 0.8025 L 3.9988154296875003 0.8025 Z M 5.659223876953126 0.7590000000000001 L 5.803223876953125 1.068 L 5.948723876953125 1.068 L 5.4597238769531256 0.018000000000000016 L 5.384723876953125 0.018000000000000016 L 4.940723876953125 1.068 L 5.009723876953125 1.068 L 5.141723876953126 0.7590000000000001 L 5.659223876953126 0.7590000000000001 Z M 5.627723876953126 0.6915 L 5.170223876953125 0.6915 L 5.386223876953125 0.18600000000000005 L 5.392223876953126 0.18600000000000005 L 5.627723876953126 0.6915 Z" fill="#382d5e" fill-rule="nonzero"></path></g><g></g><g clip-path="url(&quot;#SvgjsClipPath1027&quot;)"><g clip-path="url(&quot;#SvgjsClipPath1008&quot;)"><path d=" M -0.4427580315905528 0.3006293757038481 C -0.4572742941451795 0.2693625440725097 -0.470060988096868 0.25116505962758096 -0.4839749300679812 0.2301410428354369 C -0.48651880918047485 0.22630503464993051 -0.49829266237441083 0.20854162481546695 -0.5008735556009754 0.20460803396559238 C -0.33406440316228214 0.4588276992419177 -0.4560864775754576 0.8669184016295046 -0.7596997956193695 1.0307866144593096 C -0.765532322685052 1.0339272059562155 -0.7714242966612113 1.0369556334710888 -0.7773757175478482 1.03987189700393 C -0.8203329393672534 1.0612086542416566 -0.8661419571110605 1.0762407121163715 -0.9133891270797388 1.0845041887342437 C -0.9401063856370983 1.089107623392363 -0.9671942831139436 1.0912130579920563 -0.9943019804382363 1.0907932232067976 C -1.000262374443436 1.0906833025044058 -1.0062126736902526 1.0904589745403412 -1.0121528781786857 1.0901202393146034 C -0.9551410477514618 1.0935827414399424 -0.949228884258536 1.094255725332136 -0.9304627284247033 1.0939932616141808 C -0.8963883269926319 1.0934399489686126 -0.862500845367019 1.0888335106329707 -0.8295151445955863 1.0802711200523425 C -0.5112004934266939 0.9990352344255914 -0.30676144665596716 0.5934715865531935 -0.4427580315905528 0.3006293757038481 Z" fill="url(#iconColor_0)" transform="matrix(1,0,0,1,0,0)" fill-rule="nonzero"></path></g><g clip-path="url(&quot;#SvgjsClipPath1008&quot;)"><path d=" M -0.47380950837638913 0.35572320203831903 C -0.4819212750277848 0.3019226621841133 -0.4992089369841519 0.24991399057333002 -0.5249192700690711 0.20196320726926825 C -0.5443907461174414 0.16584729074241544 -0.5692574868787802 0.13291290102770625 -0.5986614800562404 0.10429641991459918 C -0.622660770035246 0.08100874555055365 -0.6496480507722054 0.06101326387747981 -0.6789148092003888 0.04483492811978844 C -0.6905956585191296 0.038407876550902414 -0.7026071352054949 0.03260094420860713 -0.7148992579160084 0.02743829450657033 C -0.7208147863283937 0.024941524266530637 -0.7193510463628714 0.02558758880303698 -0.7767599372864902 0.00313348123998047 C -0.6997268360664911 0.033333633402191205 -0.6371157796562119 0.08603500199991201 -0.5920696028321992 0.15854228654490554 C -0.5388332120401841 0.24423332553798166 -0.5180783888049176 0.34893952440500237 -0.5249192700690708 0.4521315095145863 C -0.5474642304575738 0.7932636795483202 -0.8601089923347305 1.0872970718868493 -1.1647284212974731 1.02652326150226 C -1.2118062162239074 1.017110762591527 -1.2566224559084302 0.9986925037776756 -1.2967140222345819 0.9722807597914147 C -1.3063814358459505 0.9658874128155707 -1.3149619804714254 0.9596219327792435 -1.3245688255324963 0.9519465514887697 C -1.2748656001745002 0.9916929801617539 -1.27957985233932 0.9879511897211545 -1.2764000034487029 0.9904210406055071 C -1.2033341422731882 1.0471266633617828 -1.1124745869880612 1.0759774828201443 -1.0110727390317136 1.069974466501773 C -0.9840299162273078 1.0682775469532735 -0.9571888005743192 1.0642048766236796 -0.9308597889210981 1.0578035528114427 C -0.6396361043324791 0.9867061695205955 -0.4269260855266863 0.6596292680753356 -0.47380950837638913 0.35572320203831903 Z" fill="url(#iconColor_1)" transform="matrix(1,0,0,1,0,0)" fill-rule="nonzero"></path></g><g clip-path="url(&quot;#SvgjsClipPath1008&quot;)"><path d=" M -1.2272048809293135 0.28145942953469893 C -1.2819352959619994 0.2897707806032962 -1.3244813376265112 0.35254671806716287 -1.3127646880634118 0.409100919447695 C -1.3031713026801848 0.455378656794423 -1.2604637448815463 0.4783341373571641 -1.2161208362248765 0.46150617513285047 C -1.1766200466725432 0.44654237828991444 -1.146803495328883 0.403966052350254 -1.1460564832085476 0.3590410126268361 C -1.145282551732524 0.3093714364634497 -1.1811021193945561 0.2744570321364192 -1.2272048809293135 0.28145942953469893 Z" fill="url(#iconColor_2)" transform="matrix(1,0,0,1,0,0)" fill-rule="nonzero"></path></g><g clip-path="url(&quot;#SvgjsClipPath1008&quot;)"><path d=" M -0.6354938884760242 0.18934812421009095 C -0.7111204533613377 0.02642881866827962 -0.8766879505189326 -0.05538246818629747 -1.0584036961697256 -0.01649409397586077 C -1.0803295113774096 -0.01181349100565073 -1.0910938887330546 -0.008216392101873204 -1.1353392147253565 0.005108688963570189 C -1.0896773268659654 -0.008921706360814387 -1.041831548419422 -0.014468910764885238 -0.9941707485792588 -0.011258279294590615 C -0.9604827952902063 -0.008845420611437251 -0.9273372314769331 -0.0014613450905164513 -0.8958107878156282 0.01065407623524968 C -0.6865127973432601 0.092781665519158 -0.6126158010608854 0.36090181308875274 -0.7268918308749064 0.6057703671830409 C -0.7776516409436477 0.7145784028729847 -0.8635883190573744 0.8109463313157205 -0.9734024656661486 0.8681196778770711 C -1.084761110307508 0.9260804155922889 -1.21630590679523 0.9369995792431384 -1.3253562166863637 0.8793080350847982 C -1.3437454435860383 0.8696557060733503 -1.3611571034531436 0.8582458907763185 -1.3773475872778198 0.8452382255424712 C -1.4350929701475357 0.7991388289271747 -1.4812697599104347 0.7290711109913849 -1.50212553072953 0.6404290376310375 C -1.4921081654942208 0.6832005288994344 -1.4908934295688103 0.688840133916021 -1.4876866613225053 0.7002774951638598 C -1.4375089823205125 0.8793551439572519 -1.2904418123593335 0.9903133631827558 -1.1108897099219446 0.9823755181743262 C -0.9417082892632671 0.974972695360191 -0.7869354537364652 0.8652123874627925 -0.694188178633734 0.7219946853649638 C -0.6863378215312897 0.7098641507081649 -0.679557508817434 0.6985950354333744 -0.6727771961035783 0.6865553536020218 C -0.5886575744987753 0.5370990908235539 -0.5626837611795431 0.3461971150443114 -0.6354938884760242 0.18934812421009095 Z" fill="url(#iconColor_3)" transform="matrix(1,0,0,1,0,0)" fill-rule="nonzero"></path></g><g clip-path="url(&quot;#SvgjsClipPath1008&quot;)"><path d=" M -0.9610902253584569 0.28476714536483294 C -0.964120487734769 0.27184742440844983 -0.9682265557053145 0.2592039316691019 -0.973365451552078 0.24696900505975056 C -1.0232402878025832 0.1287223702817845 -1.154011152814282 0.09137176426501131 -1.2726245638134939 0.15656371390185486 C -1.377499008653563 0.21423170362396823 -1.4467961600327908 0.3379328728481677 -1.4390938593866291 0.45809751171888713 C -1.4288274901112081 0.6174533675515307 -1.2883454675351482 0.7045341182819876 -1.1428497149622423 0.640385293678045 C -1.0123312189101168 0.5828586305732923 -0.9286490368352399 0.42413201467985046 -0.9610902253584569 0.28476714536483294 Z M -1.206106835909028 0.5592671802324278 C -1.2626105634976452 0.5744093178067954 -1.3150999421693252 0.557207849522314 -1.3477127415850518 0.5185516547546842 C -1.4173665744271422 0.43602700497438124 -1.3813383817585305 0.2894544781739649 -1.2796404208896175 0.225339302764632 C -1.1963653940695183 0.17284655917349134 -1.1014948547869143 0.19673748734638227 -1.0654666621183024 0.2794034637440459 C -1.0577442998615953 0.2974797661781925 -1.053191258563138 0.31675051347391486 -1.0520069842744202 0.33637155021827736 C -1.045549703828818 0.43613468239713243 -1.1155804076505371 0.5350061109188302 -1.2061169306674109 0.5592671802324278 Z" fill="url(#iconColor_4)" transform="matrix(1,0,0,1,0,0)" fill-rule="nonzero"></path></g><g clip-path="url(&quot;#SvgjsClipPath1008&quot;)"><path d=" M -0.7748116489185881 0.25503808192715816 C -0.8278394147040231 0.05273575901414741 -1.0260533604719544 -0.03781758860003117 -1.224277400998269 0.05397404937578458 C -1.4510729726676843 0.1589797260748317 -1.5722100732626243 0.4575692193635148 -1.4688532070994527 0.6701379115519467 C -1.395787345923938 0.8203916602426649 -1.2269154978556698 0.8841467892696739 -1.0536894440049056 0.8093479945717595 C -0.955373227194268 0.7669264549273038 -0.8728351177361213 0.6851488172673363 -0.8222334588820459 0.5902681832263497 C -0.7604737270953925 0.47449812917165757 -0.7492719102098216 0.35242894588602885 -0.7748116489185881 0.25503808192715816 Z M -0.8566229357731654 0.3527317886375162 C -0.8589783793958448 0.5543813171750986 -1.0169882674441002 0.7350236535178419 -1.1951910371776395 0.7530158778756515 C -1.2082497461052792 0.7543371635244246 -1.2213860088744655 0.7547262361933288 -1.2345000263206978 0.7541801400091473 C -1.3862848133661576 0.7473257990671502 -1.4922259376753546 0.6163092949348008 -1.4798026550254513 0.4418113015277898 C -1.4682172373213298 0.2783906229862938 -1.351054106609796 0.12228527935294786 -1.19883188003441 0.07696654405259643 C -1.0165474629947124 0.022750961697438808 -0.8552433187941673 0.14746833659885142 -0.8566229357731654 0.3527317886375162 Z" fill="url(#iconColor_5)" transform="matrix(1,0,0,1,0,0)" fill-rule="nonzero"></path></g></g></g><defs><clipPath id="SvgjsClipPath1027"><path d=" M -1.5061466094853895 -0.026063924922861026 h 1.1061466094853896 v 1.1201278498457221 h -1.1061466094853896 Z"></path></clipPath><clipPath id="SvgjsClipPath1008"><path d=" M -1.5061466094853895 -0.026063924922861026 L -0.3999999999999999 -0.026063924922861026 L -0.3999999999999999 1.0940639249228612 L -1.5061466094853893 1.0940639249228612 Z"></path></clipPath><linearGradient id="iconColor_0" x1="0" x2="1" y1="0" y2="1"><stop stop-color="#224197" offset="0"></stop><stop stop-color="#000000" offset="1"></stop></linearGradient><linearGradient id="iconColor_1" x1="0" x2="1" y1="0" y2="1"><stop stop-color="#2e58cc" offset="0"></stop><stop stop-color="#020409" offset="1"></stop></linearGradient><linearGradient id="iconColor_2" x1="0" x2="1" y1="0" y2="1"><stop stop-color="#284baf" offset="0"></stop><stop stop-color="#1f3c8a" offset="1"></stop></linearGradient><linearGradient id="iconColor_3" x1="0" x2="1" y1="0" y2="1"><stop stop-color="#3361e1" offset="0"></stop><stop stop-color="#070d1f" offset="1"></stop></linearGradient><linearGradient id="iconColor_4" x1="0" x2="1" y1="0" y2="1"><stop stop-color="#2e57cb" offset="0"></stop><stop stop-color="#162b63" offset="1"></stop></linearGradient><linearGradient id="iconColor_5" x1="0" x2="1" y1="0" y2="1"><stop stop-color="#325fdd" offset="0"></stop><stop stop-color="#0e1a3e" offset="1"></stop></linearGradient></defs></svg>